<svg width="118" height="28" viewBox="0 0 118 28" fill="none" xmlns="http://www.w3.org/2000/svg">
<g clip-path="url(#clip0_1_534)">
<path d="M83.2829 27.6999H80.0354V7.59399H84.4557L90.2591 19.2374L92.0934 23.4087H92.3339L94.1081 19.2374L99.8514 7.59399H104.272V27.6999H101.024V15.3663L101.144 12.4554H100.904L99.671 15.3663L94.1081 26.4996H90.199L84.6361 15.3663L83.4032 12.4554H83.1627L83.2829 15.3663V27.6999Z" fill="black"/>
<path d="M33.0668 28.0001C27.0528 28.0001 23.9857 25.3593 23.9857 21.128V20.948H27.2332V21.4281C27.2332 23.8288 28.6465 25.0292 33.0668 25.0292C36.9157 25.0292 38.2688 24.1889 38.2688 22.2984C38.2688 20.5579 37.2465 19.8977 34.6905 19.4175L29.7591 18.6073C26.3612 18.0071 23.9556 16.4466 23.9556 13.1457C23.9556 10.2348 26.3612 7.29395 32.6157 7.29395C38.5094 7.29395 41.1856 10.2348 41.1856 14.166V14.346H37.9681V13.9559C37.9681 11.4952 36.4947 10.2648 32.315 10.2648C28.6465 10.2648 27.2032 11.1651 27.2032 12.9656C27.2032 14.7061 28.2255 15.2763 30.601 15.7865L35.5024 16.6267C39.5318 17.3469 41.5164 19.1775 41.5164 22.1183C41.5164 25.1792 39.0206 28.0001 33.0668 28.0001Z" fill="black"/>
<path d="M22.3623 27.6999H19.1147V7.59399H22.3623V27.6999Z" fill="black"/>
<path d="M9.11114 28.0001C3.09719 28.0001 0.0300698 25.3593 0.0300698 21.128V20.948H3.2776V21.4281C3.2776 23.8288 4.69088 25.0292 9.11114 25.0292C12.9601 25.0292 14.3132 24.1889 14.3132 22.2984C14.3132 20.5579 13.2908 19.8977 10.7349 19.4175L5.80346 18.6073C2.40558 18.0071 0 16.4466 0 13.1457C0 10.2348 2.40558 7.29395 8.66009 7.29395C14.5538 7.29395 17.23 10.2348 17.23 14.166V14.346H14.0125V13.9559C14.0125 11.4952 12.5391 10.2648 8.35939 10.2648C4.69088 10.2648 3.24753 11.1651 3.24753 12.9656C3.24753 14.7061 4.26991 15.2763 6.64542 15.7865L11.5468 16.6267C15.5761 17.3469 17.5607 19.1775 17.5607 22.1183C17.5607 25.1792 15.0649 28.0001 9.11114 28.0001Z" fill="black"/>
<path fill-rule="evenodd" clip-rule="evenodd" d="M62.1406 10.8695V27.6999H78.258V24.7891H65.3882V19.0274H77.807V16.1465H65.3882V10.5049H78.258V7.59399H65.4228L62.1406 10.8695Z" fill="black"/>
<path fill-rule="evenodd" clip-rule="evenodd" d="M49.8666 27.6999H53.0841V10.5049H60.9924V7.59399H41.9282V10.5049H49.8666V10.5053H51.9165L49.8666 12.551V27.6999Z" fill="black"/>
<path fill-rule="evenodd" clip-rule="evenodd" d="M111.317 7.6003V11.3935H112.385V7.76461L114.196 10.8954L115.12 10.3629L113.262 7.15066L116.48 9.00508L117.014 8.08278L113.92 6.29994L117.537 6.29994V5.22762L113.684 5.22762L117.015 3.30835L116.481 2.38604L113.261 4.24156L115.119 1.02836L114.195 0.495866L112.385 3.62571V0H111.317V3.79002L109.412 0.495846L108.488 1.02834L111.187 5.69516L108.487 10.3629L109.411 10.8954L111.317 7.6003ZM106.844 2.53026L108.424 5.22762L106.165 5.22762V6.29994L108.327 6.29994L106.843 8.86594L107.767 9.39844L109.922 5.6739L107.765 1.99281L106.844 2.53026Z" fill="#ADF08D"/>
</g>
<defs>
<clipPath id="clip0_1_534">
<rect width="117.537" height="28" fill="white"/>
</clipPath>
</defs>
</svg>
